<?xml version="1.0" encoding="UTF-8"?><svg id="_レイヤー_2" xmlns="http://www.w3.org/2000/svg" viewBox="0 0 405.95 102"><defs><style>.cls-1{fill:#ed1e79;}.cls-2{fill:#1a1a1a;}</style></defs><g id="_レイヤー_1-2"><path class="cls-2" d="m51.8,93.99c-10.25,0-18.9-8.66-18.9-18.9,0-9.58,7.17-17.64,16.67-18.77.08,0,.16-.01.24-.01.49,0,.96.18,1.33.5.43.38.67.92.67,1.5v2.32c0,1-.74,1.85-1.73,1.98-6.2.85-10.87,6.22-10.87,12.48,0,6.95,5.65,12.6,12.6,12.6,5.73,0,10.65-3.8,12.22-9.45h-10.22c-1.1,0-2-.9-2-2v-2.3c0-1.1.9-2,2-2h14.9c1.1,0,2,.9,2,2v1.15c0,10.42-8.48,18.9-18.9,18.9Zm-49.29-2.52c-1.1,0-2-.9-2-2v-31.28c0-1.1.9-2,2-2h2.3c1.1,0,2,.9,2,2v31.28c0,1.1-.9,2-2,2h-2.3Zm23.56-41.71c-1.1,0-2-.9-2-2v-2.3c0-1.1.9-2,2-2h22.57v-20.67h-11.23c-1.1,0-2-.9-2-2v-2.3c0-1.1.9-2,2-2h11.23v-6.95c0-1.1.9-2,2-2h2.3c1.1,0,2,.9,2,2v6.95h10.22c1.1,0,2,.9,2,2v2.3c0,1.1-.9,2-2,2h-10.22v20.67h21.44c1.1,0,2,.9,2,2v2.3c0,1.1-.9,2-2,2H26.08ZM3.65,40.13c-.5,0-1.01-.19-1.39-.57l-1.65-1.6c-.39-.38-.61-.89-.61-1.43s.22-1.06.61-1.43l1.65-1.6c.39-.38.89-.57,1.39-.57s1.02.2,1.41.59l1.6,1.6c.78.78.78,2.05,0,2.83l-1.6,1.6c-.39.39-.9.59-1.41.59Zm0-22.05c-.5,0-1.01-.19-1.39-.57l-1.65-1.6c-.39-.38-.61-.89-.61-1.43s.22-1.06.61-1.43l1.65-1.6c.39-.38.89-.57,1.39-.57s1.02.2,1.41.59l1.6,1.6c.78.78.78,2.05,0,2.83l-1.6,1.6c-.39.39-.9.59-1.41.59Z"/><path class="cls-1" d="m124.73,75.2c-.49,0-.99-.18-1.37-.55l-.53-.5c-10.48-10.59-10.46-27.67,0-38.12,5.07-5.07,11.84-7.86,19.06-7.86s14,2.79,19.06,7.86c5.08,5.08,7.88,11.83,7.88,19.01,0,6.45-2.28,12.68-6.42,17.53-.36.42-.88.68-1.44.7-.03,0-.05,0-.08,0-.53,0-1.04-.21-1.41-.58l-1.05-1.05c-.74-.74-.79-1.93-.1-2.72,3.34-3.87,5.1-8.67,5.1-13.88,0-4.61-1.61-9.13-4.64-13.07l-32.65,32.65c-.39.39-.9.59-1.41.59Zm17.07-41.6c-5.73,0-11.08,2.2-15.08,6.2-4.11,4.11-6.37,9.52-6.37,15.23,0,4.65,1.65,9.33,4.64,13.18,6.21-6.21,26.74-26.75,30.02-30.13-3.75-2.89-8.44-4.48-13.21-4.48Z"/><path class="cls-2" d="m245.03,102c-8.34,0-15.12-6.84-15.12-15.24s6.78-15.24,15.12-15.24,15.36,6.84,15.36,15.24-6.89,15.24-15.36,15.24Zm-8.64-12.24c1.22,3.68,4.78,6.24,8.64,6.24s7.52-2.51,8.76-6.24h-17.4Zm8.64-12.24c-3.86,0-7.42,2.57-8.64,6.24h17.4c-1.24-3.73-4.76-6.24-8.76-6.24Zm-31.12-11.4c-1.1,0-2-.9-2-2v-2c0-1.1.9-2,2-2h28.12l.12-5.4h-11.08c-1.1,0-2-.9-2-2v-2c0-1.1.9-2,2-2h11.08v-5.4h-11.08c-1.1,0-2-.9-2-2v-2c0-1.1.9-2,2-2h11.08v-8.4h-28.24c-1.1,0-2-.9-2-2v-2c0-1.1.9-2,2-2h28.24v-8.52h-11.08c-1.1,0-2-.9-2-2v-2c0-1.1.9-2,2-2h11.08V2c0-1.1.9-2,2-2h2c1.1,0,2,.9,2,2v6.4h2.64c8.48,0,15.7,6.11,17.16,14.52h8.2c1.1,0,2,.9,2,2v2c0,1.1-.9,2-2,2h-8.2c-.6,3.46-2.3,6.74-4.8,9.24-3.38,3.38-7.65,5.16-12.36,5.16h-2.64v5.4h10.96c1.1,0,2,.9,2,2v2c0,1.1-.9,2-2,2h-10.96l-.12,5.4h28.12c1.1,0,2,.9,2,2v2c0,1.1-.9,2-2,2h-62.24Zm34.24-37.2v8.4h2.64c3.02,0,5.87-1.19,8.04-3.36,1.46-1.46,2.52-3.25,3-5.04h-13.68Zm0-6h13.68c-1.35-5.02-5.89-8.52-11.04-8.52h-2.64v8.52Z"/><path class="cls-2" d="m376.03,100.68c-1.1,0-2-.9-2-2v-8.92h-9.76c-1.1,0-2-.9-2-2v-2c0-1.1.9-2,2-2h9.76v-5.4c-8.41-1.46-14.76-8.99-14.76-17.52s6.34-16.06,14.76-17.52v-5.52h-9.76c-1.1,0-2-.9-2-2v-2c0-1.1.9-2,2-2h9.76v-3.52c0-1.1.9-2,2-2h2c1.1,0,2,.9,2,2v3.52h9.88c1.1,0,2,.9,2,2v2c0,1.1-.9,2-2,2h-9.88v5.52c8.48,1.45,14.88,8.99,14.88,17.52s-6.4,16.06-14.88,17.52v5.4h9.88c1.1,0,2,.9,2,2v2c0,1.1-.9,2-2,2h-9.88v8.92c0,1.1-.9,2-2,2h-2Zm-10.28-36.84c1.09,4.12,4.26,7.33,8.28,8.4v-8.4s-8.28,0-8.28,0Zm14.28,0v8.4c4.09-1.05,7.31-4.27,8.4-8.4h-8.4Zm0-6h8.4c-1.09-4.13-4.31-7.35-8.4-8.4v8.4Zm-6-8.4c-4.01,1.06-7.19,4.28-8.28,8.4h8.28v-8.4h0Zm-50.44,33.41c-.5,0-.99-.19-1.36-.54-.41-.38-.64-.91-.64-1.46v-2c0-1.05.81-1.92,1.85-1.99,4.06-.3,10.87-1.96,10.87-9.65V15.2c0-1.1.9-2,2-2h67.64c1.1,0,2,.9,2,2v2c0,1.1-.9,2-2,2h-63.64v48c0,8.93-6.35,14.93-16.58,15.65-.05,0-.09,0-.14,0ZM376.03,7.2c-1.1,0-2-.9-2-2v-2c0-1.1.9-2,2-2h2c1.1,0,2,.9,2,2v2c0,1.1-.9,2-2,2h-2Z"/></g></svg>